# xmcd CD database file generated by Grip 3.2.0
# 
# Track frame offsets:
#       150
#       15493
#       29515
#       49517
#       61747
#       90548
#       104678
#       115887
#       130777
#       143830
#       155372
#       168564
#       182755
#       195872
# 
# Disc length: 2753 seconds
# 
# Revision: 0
# Processed by: cddbd v1.5.1PL2 Copyright (c) Steve Scherf et al.
# Submitted via: Grip 3.2.0
# 
DISCID=b00abf0e
DTITLE=Lady sings the blues - Lady sings the blues - cd1
DYEAR=2005
DGENRE=Blues
TTITLE0=Chris Connor - A Good man is a seldom thing
TTITLE1=Mildred Bailey - All of me
TTITLE2=Carmen McCrae - Body and Soul
TTITLE3=Gladys Knight - Come see about me
TTITLE4=Bessie Smith - Empty Bed Blues
TTITLE5=Victoria Spivey with Lonnie Johnson - Furniture Man Blues part 2
TTITLE6=Georgia White - I'm welking the street
TTITLE7=Billie Holiday - Lover Man
TTITLE8=Ruth Brown - Mama, he treats your daughter mean
TTITLE9=Big Maybelle - My country man
TTITLE10=Lil Armstrong - Or leave me alone
TTITLE11=Christine Kittrell - Slave to love
TTITLE12=Betty Lavette - You killed my love
TTITLE13=Josephine Baker - You're driving me crazy
EXTD=
EXTT0=
EXTT1=
EXTT2=
EXTT3=
EXTT4=
EXTT5=
EXTT6=
EXTT7=
EXTT8=
EXTT9=
EXTT10=
EXTT11=
EXTT12=
EXTT13=
PLAYORDER=
